<svg width="159" height="49" viewBox="0 0 159 49" fill="none" xmlns="http://www.w3.org/2000/svg">
<path d="M58.7642 41.6413V46.7222H57.9275V43.0997L56.3803 45.6565H56.2821L54.7349 43.095V46.7222H53.8982V41.6413H54.8004L56.3336 44.1841L57.8714 41.6413H58.7642Z" fill="#414042"/>
<path d="M62.7093 41.5478C63.4432 41.5478 64.0648 41.8002 64.5743 42.319C65.0885 42.8285 65.3456 43.4502 65.3456 44.1841C65.3456 44.9179 65.0932 45.5396 64.5743 46.0585C64.0648 46.568 63.4432 46.8204 62.7093 46.8204C61.9754 46.8204 61.3537 46.568 60.8349 46.0585C60.3254 45.5443 60.073 44.9179 60.073 44.1841C60.073 43.4502 60.3301 42.8285 60.8349 42.319C61.3537 41.8002 61.9754 41.5478 62.7093 41.5478ZM62.7093 46.0024C63.2188 46.0024 63.6441 45.8294 63.9854 45.4882C64.3313 45.1376 64.5089 44.7029 64.5089 44.1794C64.5089 43.6559 64.3359 43.2212 63.9854 42.8799C63.6441 42.5341 63.2141 42.3564 62.7093 42.3564C62.1998 42.3564 61.7744 42.5294 61.4239 42.8799C61.0826 43.2212 60.9097 43.6559 60.9097 44.1794C60.9097 44.7029 61.0826 45.1376 61.4239 45.4882C61.7744 45.8294 62.1998 46.0024 62.7093 46.0024ZM62.6953 40.669L62.34 41.1692H61.6015L62.312 40.2249H63.0739L63.7937 41.1692H63.0552L62.6953 40.669ZM62.3681 48.1759C62.1811 47.9703 62.1811 47.6805 62.3681 47.4841C62.5644 47.2878 62.8682 47.2878 63.0645 47.4841C63.2515 47.6805 63.2515 47.9703 63.0552 48.1759C62.8635 48.3629 62.5737 48.3629 62.3681 48.1759Z" fill="#414042"/>
<path d="M69.9592 41.6413V42.4406H68.5288V46.7222H67.6921V42.4406H66.2571V41.6413H69.9592Z" fill="#414042"/>
<path d="M73.9837 46.0631C73.4836 45.5536 73.2265 44.9319 73.2265 44.1841C73.2265 43.4362 73.4836 42.8098 73.9837 42.3097C74.4839 41.8002 75.1242 41.5477 75.8862 41.5477C76.807 41.5477 77.6343 42.0105 78.0737 42.7584L77.3492 43.1791C77.0828 42.6789 76.5312 42.3564 75.8908 42.3564C75.3486 42.3564 74.9092 42.5293 74.568 42.8706C74.2361 43.2118 74.0678 43.6465 74.0678 44.1794C74.0678 44.7076 74.2361 45.147 74.568 45.4835C74.9092 45.8247 75.3439 45.9977 75.8908 45.9977C76.5312 45.9977 77.0874 45.6798 77.3492 45.175L78.0737 45.591C77.8634 45.9603 77.5595 46.2594 77.1669 46.4838C76.7836 46.7035 76.3536 46.811 75.8908 46.811C75.1242 46.8157 74.4839 46.5633 73.9837 46.0631Z" fill="#414042"/>
<path d="M82.3227 41.6413H83.1594V46.7222H82.3227V44.5253H80.1445V46.7222H79.3124V41.6413H80.1445V43.726H82.3227V41.6413Z" fill="#414042"/>
<path d="M88.0347 46.7223L87.6794 45.6986H85.5152L85.16 46.7223H84.2531L86.0995 41.6413H87.0998L88.9368 46.7223H88.0347ZM85.791 44.918H87.4036L86.5996 42.6229L85.791 44.918ZM86.2397 48.176C86.0528 47.9703 86.0528 47.6805 86.2397 47.4842C86.436 47.2878 86.7399 47.2878 86.9362 47.4842C87.1232 47.6805 87.1232 47.9703 86.9268 48.176C86.7352 48.3629 86.4407 48.3629 86.2397 48.176Z" fill="#414042"/>
<path d="M94.8872 41.6413V46.7222H94.0552V43.0997L92.508 45.6565H92.4051L90.858 43.095V46.7222H90.0259V41.6413H90.9234L92.4566 44.1841L93.9944 41.6413H94.8872Z" fill="#414042"/>
<path d="M98.9024 44.8198C98.7201 44.6375 98.636 44.4225 98.636 44.1654C98.636 43.9177 98.7248 43.7073 98.9024 43.5344C99.0847 43.3614 99.2997 43.2726 99.5568 43.2726C99.8046 43.2726 100.015 43.3614 100.188 43.5344C100.361 43.7073 100.45 43.9177 100.45 44.1654C100.45 44.4178 100.361 44.6375 100.188 44.8198C100.015 45.0021 99.8046 45.0862 99.5568 45.0862C99.2997 45.0909 99.0847 45.0021 98.9024 44.8198Z" fill="#414042"/>
<path d="M105.484 46.7222L103.717 41.6413H104.633L105.984 45.7126L107.34 41.6413H108.251L106.484 46.7222H105.484Z" fill="#414042"/>
<path d="M112.177 46.7223L111.822 45.6986H109.658L109.303 46.7223H108.396L110.242 41.6413H111.243L113.08 46.7223H112.177ZM109.934 44.918H111.546L110.742 42.6229L109.934 44.918ZM110.387 48.176C110.2 47.9703 110.2 47.6805 110.387 47.4842C110.584 47.2878 110.887 47.2878 111.084 47.4842C111.271 47.6805 111.271 47.9703 111.074 48.176C110.878 48.3629 110.588 48.3629 110.387 48.176Z" fill="#414042"/>
<path d="M117.221 41.6413H118.058V46.7222H117.403L115.005 43.2726V46.7222H114.173V41.6413H114.823L117.221 45.0909V41.6413Z" fill="#414042"/>
<path d="M125.284 41.6413V42.4406H123.854V46.7222H123.017V42.4406H121.582V41.6413H125.284Z" fill="#414042"/>
<path d="M127.285 41.6413H126.448V46.7222H127.285V41.6413Z" fill="#414042"/>
<path d="M129.678 45.9229H131.931V46.7222H128.846V41.6412H131.894V42.4406H129.678V43.7634H131.711V44.5533H129.678V45.9229ZM130.361 40.7064L130.005 41.2065H129.262L129.973 40.2623H130.734L131.454 41.2065H130.716L130.361 40.7064ZM130.001 48.1759C129.814 47.9703 129.814 47.6804 130.001 47.4841C130.197 47.2878 130.501 47.2878 130.697 47.4841C130.884 47.6804 130.884 47.9703 130.692 48.1759C130.491 48.3629 130.202 48.3629 130.001 48.1759Z" fill="#414042"/>
<path d="M136.287 41.6413H137.124V46.7222H136.47L134.077 43.2726V46.7222H133.24V41.6413H133.894L136.287 45.0909V41.6413Z" fill="#414042"/>
<path d="M144.098 41.6413H144.935V46.7222H144.281L141.883 43.2726V46.7222H141.051V41.6413H141.7L144.098 45.0909V41.6413Z" fill="#414042"/>
<path d="M151.442 44.0952V44.4458C151.442 45.1423 151.208 45.7172 150.75 46.1613C150.292 46.6053 149.689 46.8204 148.95 46.8204C148.165 46.8204 147.52 46.5679 147.006 46.0584C146.496 45.5489 146.244 44.9273 146.244 44.1841C146.244 43.4502 146.496 42.8238 147.006 42.319C147.52 41.8048 148.151 41.5477 148.908 41.5477C149.862 41.5477 150.689 42.0199 151.124 42.7537L150.404 43.1651C150.137 42.6789 149.567 42.3564 148.908 42.3564C148.38 42.3564 147.936 42.5293 147.595 42.8799C147.253 43.2258 147.081 43.6652 147.081 44.1841C147.081 44.7076 147.253 45.1423 147.595 45.4835C147.941 45.8247 148.399 45.9977 148.96 45.9977C149.862 45.9977 150.446 45.5396 150.6 44.8338H148.899V44.0859H151.442V44.0952Z" fill="#414042"/>
<path d="M155.765 41.6413H156.602V46.7222H155.765V44.5253H153.587V46.7222H152.75V41.6413H153.587V43.726H155.765V41.6413Z" fill="#414042"/>
<path d="M159 41.6413H158.163V46.7222H159V41.6413Z" fill="#414042"/>
<path d="M51.4536 26.9827C51.4536 27.0434 51.4536 27.1089 51.4582 27.1696L51.4536 26.9827Z" fill="#008C4F"/>
<path d="M159 7.43002H154.111V36.7566H159V7.43002Z" fill="#008C4F"/>
<path d="M100.337 7.42532H95.4481V24.5379C95.4528 25.9215 95.0602 27.3238 94.2422 28.5719C92.0172 31.9561 87.4691 32.8909 84.0849 30.666C81.9487 29.259 80.7848 26.9218 80.7848 24.5379V7.42532H75.8955V24.5379H75.8908C75.8955 28.5111 77.8307 32.4048 81.3925 34.7466C87.0297 38.458 94.6114 36.8968 98.3181 31.2549C99.683 29.1795 100.337 26.8424 100.333 24.5333H100.328V7.42532H100.337Z" fill="#008C4F"/>
<path d="M62.0876 30.666C59.9515 29.259 58.7876 26.9218 58.7876 24.5426V7.42532H53.8982V24.7249C53.9403 27.2771 54.777 29.7919 56.3336 31.8719C57.016 32.7787 57.834 33.6061 58.7829 34.3166C58.9839 34.4662 59.1849 34.6064 59.3952 34.7466C61.4192 36.0835 63.7003 36.7332 65.9579 36.7566H73.4462V31.8719H66.1075C64.7333 31.8719 63.331 31.484 62.0876 30.666Z" fill="#008C4F"/>
<path d="M143.72 9.44C138.288 5.86416 131.066 7.19634 127.224 12.3381C126.397 11.2349 125.387 10.2393 124.167 9.44C118.53 5.7286 110.948 7.28982 107.241 12.9317C105.876 15.0071 105.222 17.3442 105.227 19.6534H105.231V36.7613H110.121V19.6534C110.116 18.2698 110.509 16.8675 111.327 15.6194C113.552 12.2352 118.1 11.3004 121.484 13.5253C123.615 14.9276 124.775 17.2508 124.784 19.6253C124.784 19.6347 124.784 19.644 124.784 19.6487H124.789V36.7566H129.678V19.6487H129.683C129.683 19.644 129.683 19.6347 129.683 19.63C129.683 18.2511 130.071 16.8581 130.889 15.6148C133.114 12.2306 137.662 11.2957 141.046 13.5207C143.182 14.9276 144.346 17.2648 144.346 19.6487V36.7566H149.235V19.6487C149.221 15.6802 147.286 11.7865 143.72 9.44Z" fill="#008C4F"/>
<path d="M32.3263 32.3721C26.5909 38.0888 17.3031 38.0748 11.5864 32.3394C5.86976 26.604 5.88378 17.3162 11.6192 11.5995C17.3545 5.88284 26.6424 5.89686 32.359 11.6322C38.0757 17.3723 38.0617 26.6554 32.3263 32.3721Z" fill="#008C4F"/>
<path d="M38.244 9.2203C37.2858 10.1739 35.7386 10.1692 34.785 9.21563C33.8314 8.2574 33.8361 6.7102 34.7897 5.75664C35.7479 4.80309 37.2951 4.80776 38.2487 5.76132C39.2022 6.71955 39.2022 8.26674 38.244 9.2203Z" fill="#008C4F"/>
<path d="M38.244 9.2203C37.2858 10.1739 35.7386 10.1692 34.785 9.21563C33.8314 8.2574 33.8361 6.7102 34.7897 5.75664C35.7479 4.80309 37.2951 4.80776 38.2487 5.76132C39.2022 6.71955 39.2022 8.26674 38.244 9.2203Z" fill="#008C4F"/>
<path d="M40.6372 13.502C40.6279 13.5113 40.6185 13.516 40.6092 13.5207C40.1698 13.8432 40.0062 14.4181 40.2025 14.9276C42.9604 22.0606 41.3804 30.479 35.4675 36.1256C27.9558 43.3006 15.9709 43.3006 8.46401 36.1116C0.508341 28.5018 0.414855 15.8765 8.16952 8.14053C13.8348 2.49865 22.0943 1.04961 29.0917 3.7794C29.5965 3.97573 30.1715 3.81212 30.4987 3.37741C30.5033 3.36807 30.5127 3.35872 30.5174 3.34937C30.9895 2.71366 30.7371 1.7975 29.9985 1.51237C21.912 -1.65214 12.3297 0.147471 5.94456 6.92989C-1.83348 15.1941 -2.00176 28.2026 5.57529 36.6538C14.0591 46.1099 28.6149 46.4231 37.4961 37.5699C43.8765 31.2129 45.5312 21.911 42.4696 14.0208C42.1844 13.2823 41.2729 13.0345 40.6372 13.502Z" fill="#008C4F"/>
</svg>
